<?xml version="1.0" encoding="UTF-8" standalone="no"?>
<!DOCTYPE svg PUBLIC "-//W3C//DTD SVG 1.1//EN" "http://www.w3.org/Graphics/SVG/1.1/DTD/svg11.dtd">
<!-- Generated by graphviz version 2.40.1 (20161225.0304)
 -->
<!-- Title: G Pages: 1 -->
<svg width="1021pt" height="597pt" viewBox="0.00 0.00 1020.58 597.00" xmlns="http://www.w3.org/2000/svg" xmlns:xlink="http://www.w3.org/1999/xlink">
<g id="graph0" class="graph" transform="scale(1 1) rotate(0) translate(4 593)">
<title>G</title>
<polygon fill="#ffffff" stroke="transparent" points="-4,4 -4,-593 1016.5781,-593 1016.5781,4 -4,4"/>
<!-- H -->
<g id="node1" class="node">
<title>H</title>
<ellipse fill="#d3d3d3" stroke="#000000" cx="249" cy="-571" rx="27" ry="18"/>
<text text-anchor="middle" x="249" y="-566.8" font-family="Times,serif" font-size="14.00" fill="#000000">H</text>
</g>
<!-- TDM -->
<g id="node2" class="node">
<title>TDM</title>
<polygon fill="#ffffff" stroke="#000000" points="359,-589 305,-589 305,-553 359,-553 359,-589"/>
<text text-anchor="middle" x="332" y="-566.8" font-family="Times,serif" font-size="14.00" fill="#000000">TDM</text>
</g>
<!-- H&#45;&gt;TDM -->
<!-- h -->
<g id="node8" class="node">
<title>h</title>
<ellipse fill="#d3d3d3" stroke="#000000" cx="166" cy="-492" rx="27" ry="18"/>
<text text-anchor="middle" x="166" y="-487.8" font-family="Times,serif" font-size="14.00" fill="#000000">h</text>
</g>
<!-- H&#45;&gt;h -->
<g id="edge42" class="edge">
<title>H-&gt;h</title>
<path fill="none" stroke="#000000" d="M225.9502,-549.061C214.4486,-538.1138 200.5731,-524.9069 189.0689,-513.9572"/>
<polygon fill="#000000" stroke="#000000" points="223.7318,-551.7815 233.3883,-556.1407 228.5579,-546.7111 223.7318,-551.7815"/>
<polygon fill="#000000" stroke="#000000" points="191.1982,-511.1518 181.5417,-506.7927 186.3721,-516.2223 191.1982,-511.1518"/>
</g>
<!-- T -->
<g id="node10" class="node">
<title>T</title>
<ellipse fill="#d3d3d3" stroke="#000000" cx="332" cy="-492" rx="27" ry="18"/>
<text text-anchor="middle" x="332" y="-487.8" font-family="Times,serif" font-size="14.00" fill="#000000">T</text>
</g>
<!-- H&#45;&gt;T -->
<g id="edge40" class="edge">
<title>H-&gt;T</title>
<path fill="none" stroke="#00ff00" d="M272.0498,-549.061C283.5514,-538.1138 297.4269,-524.9069 308.9311,-513.9572"/>
<polygon fill="#00ff00" stroke="#00ff00" points="269.4421,-546.7111 264.6117,-556.1407 274.2682,-551.7815 269.4421,-546.7111"/>
<polygon fill="#00ff00" stroke="#00ff00" points="311.6279,-516.2223 316.4583,-506.7927 306.8018,-511.1518 311.6279,-516.2223"/>
</g>
<!-- WDM -->
<g id="node3" class="node">
<title>WDM</title>
<ellipse fill="#d3d3d3" stroke="#000000" cx="424" cy="-571" rx="35.9154" ry="18"/>
<text text-anchor="middle" x="424" y="-566.8" font-family="Times,serif" font-size="14.00" fill="#000000">WDM</text>
</g>
<!-- TDM&#45;&gt;WDM -->
<!-- TDM&#45;&gt;WDM -->
<!-- FDM -->
<g id="node4" class="node">
<title>FDM</title>
<ellipse fill="#d3d3d3" stroke="#000000" cx="521" cy="-571" rx="31.9205" ry="18"/>
<text text-anchor="middle" x="521" y="-566.8" font-family="Times,serif" font-size="14.00" fill="#000000">FDM</text>
</g>
<!-- WDM&#45;&gt;FDM -->
<!-- WDM&#45;&gt;FDM -->
<g id="edge46" class="edge">
<title>WDM:e-&gt;FDM</title>
<path fill="none" stroke="#000000" d="M470.1568,-571C473.0134,-571 475.8872,-571 478.7365,-571"/>
<polygon fill="#000000" stroke="#000000" points="469.7071,-567.5001 459.7071,-571 469.7071,-574.5001 469.7071,-567.5001"/>
<polygon fill="#000000" stroke="#000000" points="478.8713,-574.5001 488.8713,-571 478.8713,-567.5001 478.8713,-574.5001"/>
</g>
<!-- WDM&#45;&gt;h -->
<g id="edge44" class="edge">
<title>WDM-&gt;h</title>
<path fill="none" stroke="#000000" d="M385.4092,-556.988C381.2372,-555.5904 377.041,-554.234 373,-553 300.11,-530.7414 279.0118,-534.954 207,-510 203.915,-508.931 200.7386,-507.7282 197.584,-506.4644"/>
<polygon fill="#000000" stroke="#000000" points="384.4207,-560.3491 395.0154,-560.2856 386.6936,-553.7283 384.4207,-560.3491"/>
<polygon fill="#000000" stroke="#000000" points="198.8732,-503.2097 188.2982,-502.5623 196.1614,-509.6631 198.8732,-503.2097"/>
</g>
<!-- C -->
<g id="node9" class="node">
<title>C</title>
<ellipse fill="#d3d3d3" stroke="#000000" cx="249" cy="-492" rx="27" ry="18"/>
<text text-anchor="middle" x="249" y="-487.8" font-family="Times,serif" font-size="14.00" fill="#000000">C</text>
</g>
<!-- WDM&#45;&gt;C -->
<g id="edge43" class="edge">
<title>WDM-&gt;C</title>
<path fill="none" stroke="#000000" d="M397.0398,-558.8294C365.7124,-544.6873 314.0778,-521.378 280.8139,-506.3617"/>
<polygon fill="#000000" stroke="#000000" points="282.0918,-503.0985 271.5374,-502.174 279.2116,-509.4786 282.0918,-503.0985"/>
</g>
<!-- WDM&#45;&gt;T -->
<g id="edge47" class="edge">
<title>WDM-&gt;T</title>
<path fill="none" stroke="#00ff00" d="M397.9458,-548.6273C384.945,-537.4637 369.3082,-524.0364 356.5246,-513.0591"/>
<polygon fill="#00ff00" stroke="#00ff00" points="395.9568,-551.5328 405.8238,-555.3921 400.5172,-546.222 395.9568,-551.5328"/>
<polygon fill="#00ff00" stroke="#00ff00" points="358.4592,-510.1071 348.5923,-506.2477 353.8989,-515.4178 358.4592,-510.1071"/>
</g>
<!-- N -->
<g id="node18" class="node">
<title>N</title>
<ellipse fill="#d3d3d3" stroke="#000000" cx="627" cy="-413" rx="27" ry="18"/>
<text text-anchor="middle" x="627" y="-408.8" font-family="Times,serif" font-size="14.00" fill="#000000">N</text>
</g>
<!-- WDM&#45;&gt;N -->
<g id="edge45" class="edge">
<title>WDM:se-&gt;N</title>
<path fill="none" stroke="#000000" d="M447.315,-547.6922C479.9964,-515.092 491.3986,-504.6323 532,-474 553.2068,-458.0002 578.5869,-441.8438 597.7771,-430.1813"/>
<polygon fill="#000000" stroke="#000000" points="444.6009,-545.4563 440,-555 449.5482,-550.4085 444.6009,-545.4563"/>
<polygon fill="#000000" stroke="#000000" points="599.6261,-433.1535 606.3877,-424.9969 596.0153,-427.1566 599.6261,-433.1535"/>
</g>
<!-- SDM -->
<g id="node5" class="node">
<title>SDM</title>
<ellipse fill="#d3d3d3" stroke="#000000" cx="614" cy="-571" rx="31.9205" ry="18"/>
<text text-anchor="middle" x="614" y="-566.8" font-family="Times,serif" font-size="14.00" fill="#000000">SDM</text>
</g>
<!-- FDM&#45;&gt;SDM -->
<!-- FDM&#45;&gt;SDM -->
<g id="edge52" class="edge">
<title>FDM:e-&gt;SDM</title>
<path fill="none" stroke="#000000" d="M563.3668,-571C566.2115,-571 569.0735,-571 571.911,-571"/>
<polygon fill="#000000" stroke="#000000" points="562.9602,-567.5001 552.9602,-571 562.9602,-574.5001 562.9602,-567.5001"/>
<polygon fill="#000000" stroke="#000000" points="572.004,-574.5001 582.004,-571 572.0039,-567.5001 572.004,-574.5001"/>
</g>
<!-- FDM&#45;&gt;T -->
<g id="edge51" class="edge">
<title>FDM-&gt;T</title>
<path fill="none" stroke="#00ff00" d="M495.1166,-560.181C461.0572,-545.9445 401.1967,-520.9235 364.2357,-505.4742"/>
<polygon fill="#00ff00" stroke="#00ff00" points="365.4866,-502.2036 354.9103,-501.5763 362.7869,-508.6621 365.4866,-502.2036"/>
</g>
<!-- FDM&#45;&gt;N -->
<g id="edge48" class="edge">
<title>FDM-&gt;N</title>
<path fill="none" stroke="#000000" d="M525.0934,-552.953C530.3402,-532.485 540.8647,-498.7463 558,-474 569.1561,-457.8887 585.4456,-443.2224 599.396,-432.3104"/>
<polygon fill="#000000" stroke="#000000" points="601.8473,-434.8449 607.7131,-426.0219 597.6255,-429.2612 601.8473,-434.8449"/>
</g>
<!-- v -->
<g id="node20" class="node">
<title>v</title>
<ellipse fill="#d3d3d3" stroke="#000000" cx="793" cy="-413" rx="27" ry="18"/>
<text text-anchor="middle" x="793" y="-408.8" font-family="Times,serif" font-size="14.00" fill="#000000">v</text>
</g>
<!-- FDM&#45;&gt;v -->
<g id="edge49" class="edge">
<title>FDM-&gt;v</title>
<path fill="none" stroke="#000000" d="M532.1816,-554.0335C547.316,-532.3702 576.3326,-495.1646 610,-474 665.8266,-438.9053 690.1444,-453.8503 752,-431 755.0627,-429.8686 758.224,-428.6239 761.3692,-427.3336"/>
<polygon fill="#000000" stroke="#000000" points="762.8068,-430.5257 770.6414,-423.3934 760.069,-424.0833 762.8068,-430.5257"/>
</g>
<!-- f -->
<g id="node21" class="node">
<title>f</title>
<ellipse fill="#d3d3d3" stroke="#000000" cx="876" cy="-413" rx="27" ry="18"/>
<text text-anchor="middle" x="876" y="-408.8" font-family="Times,serif" font-size="14.00" fill="#000000">f</text>
</g>
<!-- FDM&#45;&gt;f -->
<g id="edge50" class="edge">
<title>FDM-&gt;f</title>
<path fill="none" stroke="#000000" d="M546.5413,-560.1235C553.4155,-557.4993 560.9122,-554.9061 568,-553 684.0717,-521.7851 740.4371,-584.1948 835,-510 856.3578,-493.2425 866.733,-463.2916 871.6807,-441.0896"/>
<polygon fill="#000000" stroke="#000000" points="875.1281,-441.6979 873.645,-431.2074 868.2625,-440.3331 875.1281,-441.6979"/>
</g>
<!-- grid -->
<g id="node6" class="node">
<title>grid</title>
<ellipse fill="#d3d3d3" stroke="#000000" cx="702" cy="-571" rx="27" ry="18"/>
<text text-anchor="middle" x="702" y="-566.8" font-family="Times,serif" font-size="14.00" fill="#000000">grid</text>
</g>
<!-- SDM&#45;&gt;grid -->
<!-- SDM&#45;&gt;grid -->
<g id="edge54" class="edge">
<title>SDM:e-&gt;grid</title>
<path fill="none" stroke="#000000" d="M645.9602,-571C652.006,-571 658.4186,-571 664.6637,-571"/>
<polygon fill="#000000" stroke="#000000" points="664.9215,-574.5001 674.9215,-571 664.9215,-567.5001 664.9215,-574.5001"/>
</g>
<!-- SDM&#45;&gt;T -->
<g id="edge53" class="edge">
<title>SDM-&gt;T</title>
<path fill="none" stroke="#00ff00" d="M578.4378,-556.9021C574.5982,-555.5233 570.7317,-554.1948 567,-553 497.2102,-530.6553 413.831,-510.5271 367.5059,-499.91"/>
<polygon fill="#00ff00" stroke="#00ff00" points="577.2414,-560.1913 587.8345,-560.3852 579.6744,-553.6277 577.2414,-560.1913"/>
<polygon fill="#00ff00" stroke="#00ff00" points="368.1803,-496.4741 357.6529,-497.6674 366.6267,-503.2995 368.1803,-496.4741"/>
</g>
<!-- SSB -->
<g id="node7" class="node">
<title>SSB</title>
<polygon fill="#ffffff" stroke="#000000" points="820,-589 766,-589 766,-553 820,-553 820,-589"/>
<text text-anchor="middle" x="793" y="-566.8" font-family="Times,serif" font-size="14.00" fill="#000000">SSB</text>
</g>
<!-- grid&#45;&gt;SSB -->
<!-- grid&#45;&gt;SSB -->
<g id="edge55" class="edge">
<title>grid:e-&gt;SSB</title>
<path fill="none" stroke="#000000" d="M729,-571C737.7049,-571 747.0757,-571 755.8897,-571"/>
<polygon fill="#000000" stroke="#000000" points="755.9075,-574.5001 765.9074,-571 755.9074,-567.5001 755.9075,-574.5001"/>
</g>
<!-- h&#45;&gt;C -->
<!-- h&#45;&gt;C -->
<g id="edge57" class="edge">
<title>h:e-&gt;C</title>
<path fill="none" stroke="#000000" d="M193,-492C199.0414,-492 205.4495,-492 211.6903,-492"/>
<polygon fill="#000000" stroke="#000000" points="211.9408,-495.5001 221.9407,-492 211.9407,-488.5001 211.9408,-495.5001"/>
</g>
<!-- size -->
<g id="node14" class="node">
<title>size</title>
<polygon fill="#d3d3d3" stroke="#000000" points="54,-431 0,-431 0,-395 54,-395 54,-431"/>
<text text-anchor="middle" x="27" y="-408.8" font-family="Times,serif" font-size="14.00" fill="#000000">size</text>
</g>
<!-- h&#45;&gt;size -->
<!-- M -->
<g id="node29" class="node">
<title>M</title>
<ellipse fill="#d3d3d3" stroke="#000000" cx="349" cy="-255" rx="27" ry="18"/>
<text text-anchor="middle" x="349" y="-250.8" font-family="Times,serif" font-size="14.00" fill="#000000">M</text>
</g>
<!-- h&#45;&gt;M -->
<g id="edge58" class="edge">
<title>h-&gt;M</title>
<path fill="none" stroke="#000000" d="M148.2578,-467.0935C124.3496,-430.1961 88.6355,-360.5819 124,-316 176.1913,-250.2056 228.3253,-299.5478 308,-273 311.0976,-271.9679 314.2823,-270.7899 317.4423,-269.5418"/>
<polygon fill="#000000" stroke="#000000" points="145.5654,-469.364 154.0313,-475.7342 151.3857,-465.475 145.5654,-469.364"/>
<polygon fill="#000000" stroke="#000000" points="318.8558,-272.7445 326.7358,-265.6623 316.1593,-266.2847 318.8558,-272.7445"/>
</g>
<!-- C&#45;&gt;T -->
<!-- shape -->
<g id="node15" class="node">
<title>shape</title>
<polygon fill="#d3d3d3" stroke="#000000" points="267,-431 213,-431 213,-395 267,-395 267,-431"/>
<text text-anchor="middle" x="240" y="-408.8" font-family="Times,serif" font-size="14.00" fill="#000000">shape</text>
</g>
<!-- C&#45;&gt;shape -->
<g id="edge56" class="edge">
<title>C-&gt;shape</title>
<path fill="none" stroke="#000000" d="M246.9126,-473.6772C245.8221,-464.1053 244.4633,-452.1777 243.2397,-441.4371"/>
<polygon fill="#000000" stroke="#000000" points="246.6856,-440.7629 242.0761,-431.2234 239.7306,-441.5553 246.6856,-440.7629"/>
</g>
<!-- T&#45;&gt;TDM -->
<g id="edge60" class="edge">
<title>T-&gt;TDM</title>
<path fill="none" stroke="#000000" d="M332,-510.2234C332,-519.779 332,-531.7025 332,-542.4513"/>
<polygon fill="#000000" stroke="#000000" points="328.5001,-542.6772 332,-552.6772 335.5001,-542.6773 328.5001,-542.6772"/>
</g>
<!-- D -->
<g id="node11" class="node">
<title>D</title>
<ellipse fill="#d3d3d3" stroke="#000000" cx="651" cy="-492" rx="27" ry="18"/>
<text text-anchor="middle" x="651" y="-487.8" font-family="Times,serif" font-size="14.00" fill="#000000">D</text>
</g>
<!-- T&#45;&gt;D -->
<!-- T&#45;&gt;D -->
<g id="edge63" class="edge">
<title>T:e-&gt;D</title>
<path fill="none" stroke="#000000" d="M359,-492C450.4401,-492 557.9872,-492 613.5484,-492"/>
<polygon fill="#000000" stroke="#000000" points="613.625,-495.5001 623.625,-492 613.625,-488.5001 613.625,-495.5001"/>
</g>
<!-- T&#45;&gt;shape -->
<g id="edge61" class="edge">
<title>T-&gt;shape</title>
<path fill="none" stroke="#000000" d="M315.1258,-477.5102C302.1386,-466.3581 283.8895,-450.6877 268.6298,-437.5843"/>
<polygon fill="#000000" stroke="#000000" points="270.8331,-434.8629 260.9661,-431.0035 266.2727,-440.1736 270.8331,-434.8629"/>
</g>
<!-- T&#45;&gt;N -->
<g id="edge64" class="edge">
<title>T-&gt;N</title>
<path fill="none" stroke="#00ff00" d="M365.4426,-479.1657C370.6203,-477.3383 375.9313,-475.5544 381,-474 454.8777,-451.3448 543.1605,-431.0664 591.319,-420.5651"/>
<polygon fill="#00ff00" stroke="#00ff00" points="363.9542,-475.9825 355.7485,-482.6845 366.3427,-482.5624 363.9542,-475.9825"/>
<polygon fill="#00ff00" stroke="#00ff00" points="592.2177,-423.9517 601.2503,-418.4144 590.736,-417.1103 592.2177,-423.9517"/>
</g>
<!-- l -->
<g id="node19" class="node">
<title>l</title>
<ellipse fill="#d3d3d3" stroke="#000000" cx="710" cy="-413" rx="27" ry="18"/>
<text text-anchor="middle" x="710" y="-408.8" font-family="Times,serif" font-size="14.00" fill="#000000">l</text>
</g>
<!-- T&#45;&gt;l -->
<g id="edge62" class="edge">
<title>T-&gt;l</title>
<path fill="none" stroke="#000000" d="M358.7184,-489.32C416.3859,-483.0704 556.4066,-465.3831 669,-431 672.197,-430.0237 675.4768,-428.8676 678.7213,-427.6195"/>
<polygon fill="#000000" stroke="#000000" points="680.3272,-430.743 688.2311,-423.6876 677.6525,-424.2741 680.3272,-430.743"/>
</g>
<!-- D&#45;&gt;FDM -->
<g id="edge65" class="edge">
<title>D-&gt;FDM</title>
<path fill="none" stroke="#000000" d="M630.8813,-504.226C609.6144,-517.1497 575.8231,-537.6844 551.3242,-552.5722"/>
<polygon fill="#000000" stroke="#000000" points="549.4872,-549.5929 542.7591,-557.7772 553.1225,-555.5749 549.4872,-549.5929"/>
</g>
<!-- D&#45;&gt;SDM -->
<g id="edge66" class="edge">
<title>D-&gt;SDM</title>
<path fill="none" stroke="#000000" d="M642.9388,-509.2118C638.144,-519.4494 631.9585,-532.6562 626.5378,-544.2302"/>
<polygon fill="#000000" stroke="#000000" points="623.2834,-542.9269 622.2115,-553.4673 629.6225,-545.8959 623.2834,-542.9269"/>
</g>
<!-- D&#45;&gt;grid -->
<g id="edge67" class="edge">
<title>D-&gt;grid</title>
<path fill="none" stroke="#000000" d="M661.8002,-508.7297C668.6938,-519.408 677.7639,-533.4578 685.5438,-545.509"/>
<polygon fill="#000000" stroke="#000000" points="682.82,-547.743 691.1842,-554.2461 688.701,-543.9464 682.82,-547.743"/>
</g>
<!-- K -->
<g id="node12" class="node">
<title>K</title>
<ellipse fill="#d3d3d3" stroke="#000000" cx="793" cy="-492" rx="27" ry="18"/>
<text text-anchor="middle" x="793" y="-487.8" font-family="Times,serif" font-size="14.00" fill="#000000">K</text>
</g>
<!-- D&#45;&gt;K -->
<!-- D&#45;&gt;N -->
<g id="edge69" class="edge">
<title>D-&gt;N</title>
<path fill="none" stroke="#0000ff" d="M642.6045,-464.3648C640.2555,-456.6328 637.7035,-448.2322 635.3567,-440.5076"/>
<polygon fill="#0000ff" stroke="#0000ff" points="639.2983,-465.5229 645.554,-474.0737 645.996,-463.4881 639.2983,-465.5229"/>
<polygon fill="#0000ff" stroke="#0000ff" points="638.6802,-439.4062 632.4244,-430.8554 631.9824,-441.441 638.6802,-439.4062"/>
</g>
<!-- D&#45;&gt;l -->
<g id="edge70" class="edge">
<title>D-&gt;l</title>
<path fill="none" stroke="#0000ff" d="M669.3075,-467.4865C676.4011,-457.9883 684.5084,-447.1328 691.6098,-437.6241"/>
<polygon fill="#0000ff" stroke="#0000ff" points="666.4044,-465.5246 663.2248,-475.6311 672.0129,-469.7133 666.4044,-465.5246"/>
<polygon fill="#0000ff" stroke="#0000ff" points="694.6113,-439.4544 697.7908,-429.3479 689.0028,-435.2657 694.6113,-439.4544"/>
</g>
<!-- D&#45;&gt;v -->
<g id="edge71" class="edge">
<title>D-&gt;v</title>
<path fill="none" stroke="#0000ff" d="M680.6931,-475.4806C704.9059,-462.0101 738.9457,-443.0724 763.1901,-429.5844"/>
<polygon fill="#0000ff" stroke="#0000ff" points="678.9897,-472.423 671.9526,-480.3433 682.3929,-478.5401 678.9897,-472.423"/>
<polygon fill="#0000ff" stroke="#0000ff" points="764.9244,-432.6248 771.9614,-424.7045 761.5212,-426.5077 764.9244,-432.6248"/>
</g>
<!-- D&#45;&gt;f -->
<g id="edge72" class="edge">
<title>D-&gt;f</title>
<path fill="none" stroke="#0000ff" d="M685.5106,-481.6189C722.7417,-470.1742 783.601,-450.753 835,-431 838.0477,-429.8288 841.1989,-428.5573 844.3377,-427.2501"/>
<polygon fill="#0000ff" stroke="#0000ff" points="684.2036,-478.3585 675.6636,-484.6291 686.25,-485.0527 684.2036,-478.3585"/>
<polygon fill="#0000ff" stroke="#0000ff" points="845.7846,-430.438 853.6007,-423.2855 843.0302,-424.0027 845.7846,-430.438"/>
</g>
<!-- L -->
<g id="node30" class="node">
<title>L</title>
<ellipse fill="#d3d3d3" stroke="#000000" cx="432" cy="-255" rx="27" ry="18"/>
<text text-anchor="middle" x="432" y="-250.8" font-family="Times,serif" font-size="14.00" fill="#000000">L</text>
</g>
<!-- D&#45;&gt;L -->
<g id="edge68" class="edge">
<title>D-&gt;L</title>
<path fill="none" stroke="#000000" d="M634.5507,-477.387C621.1499,-465.2889 601.9111,-447.4753 586,-431 535.557,-378.7686 480.4335,-313.6183 451.7881,-279.0914"/>
<polygon fill="#000000" stroke="#000000" points="454.1656,-276.4743 445.0948,-270.9997 448.7717,-280.936 454.1656,-276.4743"/>
</g>
<!-- K&#45;&gt;FDM -->
<g id="edge77" class="edge">
<title>K-&gt;FDM</title>
<path fill="none" stroke="#000000" d="M767.4462,-498.0345C725.4513,-508.1505 639.3769,-529.7224 568,-553 564.2748,-554.2149 560.4125,-555.5565 556.5755,-556.9431"/>
<polygon fill="#000000" stroke="#000000" points="555.335,-553.6701 547.182,-560.4361 557.7748,-560.2312 555.335,-553.6701"/>
</g>
<!-- K&#45;&gt;SSB -->
<g id="edge79" class="edge">
<title>K-&gt;SSB</title>
<path fill="none" stroke="#000000" d="M793,-510.2234C793,-519.779 793,-531.7025 793,-542.4513"/>
<polygon fill="#000000" stroke="#000000" points="789.5001,-542.6772 793,-552.6772 796.5001,-542.6773 789.5001,-542.6772"/>
</g>
<!-- reverse -->
<g id="node13" class="node">
<title>reverse</title>
<ellipse fill="#d3d3d3" stroke="#000000" cx="947" cy="-492" rx="38.8208" ry="18"/>
<text text-anchor="middle" x="947" y="-487.8" font-family="Times,serif" font-size="14.00" fill="#000000">reverse</text>
</g>
<!-- K&#45;&gt;reverse -->
<!-- K&#45;&gt;N -->
<g id="edge73" class="edge">
<title>K-&gt;N</title>
<path fill="none" stroke="#ff0000" d="M761.7951,-477.1495C732.1573,-463.0447 687.842,-441.9549 658.2044,-427.8503"/>
<polygon fill="#ff0000" stroke="#ff0000" points="760.4228,-480.3725 770.9565,-481.5094 763.4309,-474.0518 760.4228,-480.3725"/>
<polygon fill="#ff0000" stroke="#ff0000" points="659.6684,-424.6709 649.1347,-423.534 656.6603,-430.9916 659.6684,-424.6709"/>
</g>
<!-- K&#45;&gt;l -->
<g id="edge74" class="edge">
<title>K-&gt;l</title>
<path fill="none" stroke="#ff0000" d="M769.9502,-470.061C758.4486,-459.1138 744.5731,-445.9069 733.0689,-434.9572"/>
<polygon fill="#ff0000" stroke="#ff0000" points="767.7318,-472.7815 777.3883,-477.1407 772.5579,-467.7111 767.7318,-472.7815"/>
<polygon fill="#ff0000" stroke="#ff0000" points="735.1982,-432.1518 725.5417,-427.7927 730.3721,-437.2223 735.1982,-432.1518"/>
</g>
<!-- K&#45;&gt;v -->
<g id="edge75" class="edge">
<title>K-&gt;v</title>
<path fill="none" stroke="#ff0000" d="M793,-463.4513C793,-456.2294 793,-448.4773 793,-441.2694"/>
<polygon fill="#ff0000" stroke="#ff0000" points="789.5001,-463.6772 793,-473.6772 796.5001,-463.6773 789.5001,-463.6772"/>
<polygon fill="#ff0000" stroke="#ff0000" points="796.5001,-441.2234 793,-431.2234 789.5001,-441.2234 796.5001,-441.2234"/>
</g>
<!-- K&#45;&gt;f -->
<g id="edge76" class="edge">
<title>K-&gt;f</title>
<path fill="none" stroke="#ff0000" d="M816.0498,-470.061C827.5514,-459.1138 841.4269,-445.9069 852.9311,-434.9572"/>
<polygon fill="#ff0000" stroke="#ff0000" points="813.4421,-467.7111 808.6117,-477.1407 818.2682,-472.7815 813.4421,-467.7111"/>
<polygon fill="#ff0000" stroke="#ff0000" points="855.6279,-437.2223 860.4583,-427.7927 850.8018,-432.1518 855.6279,-437.2223"/>
</g>
<!-- PU -->
<g id="node33" class="node">
<title>PU</title>
<polygon fill="#ffffff" stroke="#000000" points="903,-273 849,-273 849,-237 903,-237 903,-273"/>
<text text-anchor="middle" x="876" y="-250.8" font-family="Times,serif" font-size="14.00" fill="#000000">PU</text>
</g>
<!-- K&#45;&gt;PU -->
<g id="edge78" class="edge">
<title>K-&gt;PU</title>
<path fill="none" stroke="#000000" d="M818.876,-486.2296C872.1107,-474.1038 989.8625,-445.8729 1001,-431 1041.795,-376.523 961.8138,-310.7716 911.8767,-277.1536"/>
<polygon fill="#000000" stroke="#000000" points="913.5139,-274.0407 903.2394,-271.4551 909.659,-279.8836 913.5139,-274.0407"/>
</g>
<!-- reverse&#45;&gt;f -->
<g id="edge80" class="edge">
<title>reverse-&gt;f</title>
<path fill="none" stroke="#000000" stroke-dasharray="5,2" d="M931.9427,-475.2461C921.7917,-463.9513 908.2578,-448.8925 897.0445,-436.4157"/>
<polygon fill="#000000" stroke="#000000" points="899.3574,-433.7531 890.0697,-428.6551 894.151,-438.4323 899.3574,-433.7531"/>
</g>
<!-- size&#45;&gt;shape -->
<!-- size&#45;&gt;shape -->
<g id="edge123" class="edge">
<title>size:e-&gt;shape</title>
<path fill="none" stroke="#000000" d="M64.025,-413C118.1616,-413 178.8003,-413 212.8929,-413"/>
<polygon fill="#000000" stroke="#000000" points="64,-409.5001 54,-413 64,-416.5001 64,-409.5001"/>
</g>
<!-- nbytes -->
<g id="node34" class="node">
<title>nbytes</title>
<polygon fill="#ffffff" stroke="#000000" points="169,-194 115,-194 115,-158 169,-158 169,-194"/>
<text text-anchor="middle" x="142" y="-171.8" font-family="Times,serif" font-size="14.00" fill="#000000">nbytes</text>
</g>
<!-- size&#45;&gt;nbytes -->
<g id="edge122" class="edge">
<title>size-&gt;nbytes</title>
<path fill="none" stroke="#000000" d="M35.5658,-394.7254C44.7429,-375.1968 59.7758,-343.3506 73,-316 91.9923,-276.7198 114.3899,-231.4675 128.3958,-203.2949"/>
<polygon fill="#000000" stroke="#000000" points="131.6596,-204.5922 132.9806,-194.08 125.3925,-201.474 131.6596,-204.5922"/>
</g>
<!-- P -->
<g id="node16" class="node">
<title>P</title>
<ellipse fill="#d3d3d3" stroke="#000000" cx="323" cy="-413" rx="27" ry="18"/>
<text text-anchor="middle" x="323" y="-408.8" font-family="Times,serif" font-size="14.00" fill="#000000">P</text>
</g>
<!-- shape&#45;&gt;P -->
<!-- axis -->
<g id="node24" class="node">
<title>axis</title>
<ellipse fill="#d3d3d3" stroke="#000000" cx="249" cy="-334" rx="27" ry="18"/>
<text text-anchor="middle" x="249" y="-329.8" font-family="Times,serif" font-size="14.00" fill="#000000">axis</text>
</g>
<!-- shape&#45;&gt;axis -->
<!-- angle -->
<g id="node17" class="node">
<title>angle</title>
<ellipse fill="#d3d3d3" stroke="#000000" cx="411" cy="-413" rx="31.9012" ry="18"/>
<text text-anchor="middle" x="411" y="-408.8" font-family="Times,serif" font-size="14.00" fill="#000000">angle</text>
</g>
<!-- P&#45;&gt;angle -->
<!-- X -->
<g id="node23" class="node">
<title>X</title>
<ellipse fill="#d3d3d3" stroke="#000000" cx="166" cy="-334" rx="27" ry="18"/>
<text text-anchor="middle" x="166" y="-329.8" font-family="Times,serif" font-size="14.00" fill="#000000">X</text>
</g>
<!-- P&#45;&gt;X -->
<g id="edge89" class="edge">
<title>P-&gt;X</title>
<path fill="none" stroke="#000000" d="M292.1494,-397.4765C264.5779,-383.6029 224.3911,-363.3815 196.8268,-349.5116"/>
<polygon fill="#000000" stroke="#000000" points="290.6637,-400.647 301.1698,-402.0154 293.8102,-394.3939 290.6637,-400.647"/>
<polygon fill="#000000" stroke="#000000" points="198.1509,-346.2597 187.6448,-344.8913 195.0044,-352.5128 198.1509,-346.2597"/>
</g>
<!-- Y -->
<g id="node25" class="node">
<title>Y</title>
<ellipse fill="#d3d3d3" stroke="#000000" cx="332" cy="-334" rx="27" ry="18"/>
<text text-anchor="middle" x="332" y="-329.8" font-family="Times,serif" font-size="14.00" fill="#000000">Y</text>
</g>
<!-- P&#45;&gt;Y -->
<g id="edge90" class="edge">
<title>P-&gt;Y</title>
<path fill="none" stroke="#000000" d="M326.2226,-384.7126C327.0681,-377.2913 327.9791,-369.2942 328.8222,-361.8937"/>
<polygon fill="#000000" stroke="#000000" points="322.7419,-384.3453 325.0874,-394.6772 329.6969,-385.1377 322.7419,-384.3453"/>
<polygon fill="#000000" stroke="#000000" points="332.3004,-362.283 329.9549,-351.951 325.3454,-361.4905 332.3004,-362.283"/>
</g>
<!-- angle&#45;&gt;grid -->
<g id="edge127" class="edge">
<title>angle-&gt;grid</title>
<path fill="none" stroke="#000000" d="M434.0299,-425.5042C486.1117,-453.7823 612.9576,-522.6539 671.4869,-554.4328"/>
<polygon fill="#000000" stroke="#000000" points="670.1438,-557.6861 680.6021,-559.3819 673.484,-551.5344 670.1438,-557.6861"/>
</g>
<!-- angle&#45;&gt;N -->
<!-- angle&#45;&gt;L -->
<g id="edge103" class="edge">
<title>angle-&gt;L</title>
<path fill="none" stroke="#000000" d="M413.409,-394.8754C417.029,-367.6388 423.9048,-315.907 428.2037,-283.5623"/>
<polygon fill="#000000" stroke="#000000" points="431.7063,-283.7739 429.5544,-273.3999 424.7673,-282.8516 431.7063,-283.7739"/>
</g>
<!-- N&#45;&gt;SSB -->
<g id="edge81" class="edge">
<title>N-&gt;SSB</title>
<path fill="none" stroke="#000000" d="M643.1044,-427.6842C656.5301,-439.9738 676.1186,-458.0157 693,-474 718.5404,-498.1832 747.3327,-526.1921 767.4409,-545.8768"/>
<polygon fill="#000000" stroke="#000000" points="765.1055,-548.4887 774.6974,-552.9883 770.005,-543.4892 765.1055,-548.4887"/>
</g>
<!-- N&#45;&gt;l -->
<!-- UMR -->
<g id="node26" class="node">
<title>UMR</title>
<polygon fill="#d3d3d3" stroke="#000000" points="737,-352 683,-352 683,-316 737,-316 737,-352"/>
<text text-anchor="middle" x="710" y="-329.8" font-family="Times,serif" font-size="14.00" fill="#000000">UMR</text>
</g>
<!-- N&#45;&gt;UMR -->
<g id="edge82" class="edge">
<title>N-&gt;UMR</title>
<path fill="none" stroke="#000000" d="M642.6117,-398.1407C654.0741,-387.2307 669.9236,-372.145 683.372,-359.3447"/>
<polygon fill="#000000" stroke="#000000" points="686.1309,-361.5507 690.9614,-352.1211 681.3049,-356.4803 686.1309,-361.5507"/>
</g>
<!-- u -->
<g id="node37" class="node">
<title>u</title>
<polygon fill="#d3d3d3" stroke="#000000" points="454,-194 400,-194 400,-158 454,-158 454,-194"/>
<text text-anchor="middle" x="427" y="-171.8" font-family="Times,serif" font-size="14.00" fill="#000000">u</text>
</g>
<!-- N&#45;&gt;u -->
<g id="edge125" class="edge">
<title>N-&gt;u</title>
<path fill="none" stroke="#000000" d="M613.5669,-397.0818C579.6345,-356.8718 490.2276,-250.9247 448.7312,-201.7515"/>
<polygon fill="#000000" stroke="#000000" points="451.3884,-199.4733 442.2642,-194.0881 446.0387,-203.9878 451.3884,-199.4733"/>
</g>
<!-- l&#45;&gt;v -->
<!-- l&#45;&gt;v -->
<g id="edge84" class="edge">
<title>l:e-&gt;v</title>
<path fill="none" stroke="#000000" d="M747.4192,-413C750.1688,-413 752.9312,-413 755.6617,-413"/>
<polygon fill="#000000" stroke="#000000" points="747,-409.5001 737,-413 747,-416.5001 747,-409.5001"/>
<polygon fill="#000000" stroke="#000000" points="755.9408,-416.5001 765.9407,-413 755.9407,-409.5001 755.9408,-416.5001"/>
</g>
<!-- l&#45;&gt;UMR -->
<g id="edge83" class="edge">
<title>l-&gt;UMR</title>
<path fill="none" stroke="#000000" d="M710,-394.6772C710,-385.1053 710,-373.1777 710,-362.4371"/>
<polygon fill="#000000" stroke="#000000" points="713.5001,-362.2234 710,-352.2234 706.5001,-362.2234 713.5001,-362.2234"/>
</g>
<!-- l&#45;&gt;u -->
<g id="edge126" class="edge">
<title>l-&gt;u</title>
<path fill="none" stroke="#000000" d="M694.549,-397.6357C662.4983,-366.0745 585.9288,-292.2674 516,-237 498.9796,-223.5482 479.1444,-209.7831 462.5245,-198.7413"/>
<polygon fill="#000000" stroke="#000000" points="464.435,-195.8087 454.1584,-193.2315 460.5848,-201.6548 464.435,-195.8087"/>
</g>
<!-- v&#45;&gt;f -->
<!-- v&#45;&gt;f -->
<g id="edge85" class="edge">
<title>v:e-&gt;f</title>
<path fill="none" stroke="#000000" d="M820,-413C826.0414,-413 832.4495,-413 838.6903,-413"/>
<polygon fill="#000000" stroke="#000000" points="838.9408,-416.5001 848.9407,-413 838.9407,-409.5001 838.9408,-416.5001"/>
</g>
<!-- v&#45;&gt;UMR -->
<g id="edge86" class="edge">
<title>v-&gt;UMR</title>
<path fill="none" stroke="#000000" d="M777.3883,-398.1407C765.9259,-387.2307 750.0764,-372.145 736.628,-359.3447"/>
<polygon fill="#000000" stroke="#000000" points="738.6951,-356.4803 729.0386,-352.1211 733.8691,-361.5507 738.6951,-356.4803"/>
</g>
<!-- v&#45;&gt;PU -->
<g id="edge87" class="edge">
<title>v-&gt;PU</title>
<path fill="none" stroke="#000000" d="M795.9743,-394.918C799.835,-374.7148 807.8185,-341.4992 822,-316 829.1215,-303.1951 839.322,-290.7647 848.9434,-280.5025"/>
<polygon fill="#000000" stroke="#000000" points="851.67,-282.7188 856.1275,-273.1072 846.6491,-277.8412 851.67,-282.7188"/>
</g>
<!-- f&#45;&gt;N -->
<g id="edge88" class="edge">
<title>f-&gt;N:s</title>
<path fill="none" stroke="#000000" d="M860.485,-397.9241C850.0944,-388.9198 835.5958,-378.3235 820.5,-373.5 780.1761,-360.6155 657.1582,-362.767 631.6576,-385.9235"/>
<polygon fill="#000000" stroke="#000000" points="628.4516,-384.5051 627,-395 634.6795,-387.7009 628.4516,-384.5051"/>
</g>
<!-- o -->
<g id="node22" class="node">
<title>o</title>
<ellipse fill="#d3d3d3" stroke="#000000" cx="959" cy="-413" rx="27" ry="18"/>
<text text-anchor="middle" x="959" y="-408.8" font-family="Times,serif" font-size="14.00" fill="#000000">o</text>
</g>
<!-- f&#45;&gt;o -->
<!-- X&#45;&gt;shape -->
<g id="edge92" class="edge">
<title>X-&gt;shape</title>
<path fill="none" stroke="#000000" d="M180.3337,-349.3022C190.3967,-360.0451 204.0984,-374.6727 215.834,-387.2012"/>
<polygon fill="#000000" stroke="#000000" points="213.4461,-389.7717 222.8369,-394.6772 218.5549,-384.9862 213.4461,-389.7717"/>
</g>
<!-- X&#45;&gt;axis -->
<!-- X&#45;&gt;axis -->
<g id="edge91" class="edge">
<title>X:e-&gt;axis</title>
<path fill="none" stroke="#000000" d="M193,-334C199.0414,-334 205.4495,-334 211.6903,-334"/>
<polygon fill="#000000" stroke="#000000" points="211.9408,-337.5001 221.9407,-334 211.9407,-330.5001 211.9408,-337.5001"/>
</g>
<!-- X&#45;&gt;L -->
<g id="edge93" class="edge">
<title>X-&gt;L</title>
<path fill="none" stroke="#000000" d="M188.2659,-323.3427C194.2626,-320.7168 200.8061,-318.068 207,-316 286.2482,-289.5411 310.6362,-299.1101 390,-273 393.3416,-271.9006 396.7858,-270.642 400.1967,-269.3124"/>
<polygon fill="#000000" stroke="#000000" points="401.686,-272.4845 409.6086,-265.4501 399.0285,-266.0086 401.686,-272.4845"/>
</g>
<!-- axis&#45;&gt;Y -->
<!-- axis&#45;&gt;L -->
<g id="edge97" class="edge">
<title>axis-&gt;L</title>
<path fill="none" stroke="#000000" d="M271.5426,-324.0649C277.5372,-321.4334 284.0104,-318.6012 290,-316 310.5272,-307.0852 364.5979,-283.887 399.7802,-268.8056"/>
<polygon fill="#000000" stroke="#000000" points="401.3465,-271.9423 409.159,-264.7858 398.5888,-265.5084 401.3465,-271.9423"/>
</g>
<!-- Y&#45;&gt;shape -->
<g id="edge94" class="edge">
<title>Y-&gt;shape</title>
<path fill="none" stroke="#000000" d="M315.3661,-348.2834C302.4736,-359.3542 284.2923,-374.9664 269.0174,-388.0829"/>
<polygon fill="#000000" stroke="#000000" points="266.6445,-385.5071 261.3379,-394.6772 271.2048,-390.8179 266.6445,-385.5071"/>
</g>
<!-- Y&#45;&gt;axis -->
<g id="edge96" class="edge">
<title>Y:w-&gt;axis</title>
<path fill="none" stroke="#000000" d="M305,-334C298.9586,-334 292.5505,-334 286.3097,-334"/>
<polygon fill="#000000" stroke="#000000" points="286.0593,-330.5001 276.0593,-334 286.0592,-337.5001 286.0593,-330.5001"/>
</g>
<!-- Y&#45;&gt;UMR -->
<!-- Y&#45;&gt;L -->
<g id="edge95" class="edge">
<title>Y-&gt;L</title>
<path fill="none" stroke="#000000" d="M349.4187,-320.2393C365.0957,-307.8544 388.3418,-289.49 406.1798,-275.3979"/>
<polygon fill="#000000" stroke="#000000" points="408.7682,-277.8135 414.4454,-268.8681 404.4289,-272.3208 408.7682,-277.8135"/>
</g>
<!-- static -->
<g id="node27" class="node">
<title>static</title>
<ellipse fill="#d3d3d3" stroke="#000000" cx="868" cy="-334" rx="31.3333" ry="18"/>
<text text-anchor="middle" x="868" y="-329.8" font-family="Times,serif" font-size="14.00" fill="#000000">static</text>
</g>
<!-- UMR&#45;&gt;static -->
<!-- eta -->
<g id="node31" class="node">
<title>eta</title>
<polygon fill="#d3d3d3" stroke="#000000" points="737,-273 683,-273 683,-237 737,-237 737,-273"/>
<text text-anchor="middle" x="710" y="-250.8" font-family="Times,serif" font-size="14.00" fill="#000000">eta</text>
</g>
<!-- UMR&#45;&gt;eta -->
<g id="edge98" class="edge">
<title>UMR-&gt;eta</title>
<path fill="none" stroke="#000000" d="M710,-315.6772C710,-306.1053 710,-294.1777 710,-283.4371"/>
<polygon fill="#000000" stroke="#000000" points="713.5001,-283.2234 710,-273.2234 706.5001,-283.2234 713.5001,-283.2234"/>
</g>
<!-- DR -->
<g id="node32" class="node">
<title>DR</title>
<polygon fill="#ffffff" stroke="#000000" points="820,-273 766,-273 766,-237 820,-237 820,-273"/>
<text text-anchor="middle" x="793" y="-250.8" font-family="Times,serif" font-size="14.00" fill="#000000">DR</text>
</g>
<!-- UMR&#45;&gt;DR -->
<g id="edge99" class="edge">
<title>UMR-&gt;DR</title>
<path fill="none" stroke="#000000" d="M729.2505,-315.6772C740.3547,-305.1082 754.4762,-291.6672 766.6046,-280.1233"/>
<polygon fill="#000000" stroke="#000000" points="769.0235,-282.653 773.8539,-273.2234 764.1974,-277.5826 769.0235,-282.653"/>
</g>
<!-- static&#45;&gt;v -->
<g id="edge100" class="edge">
<title>static-&gt;v</title>
<path fill="none" stroke="#000000" d="M852.8113,-349.9987C841.8428,-361.5522 826.8726,-377.3209 814.6532,-390.192"/>
<polygon fill="#000000" stroke="#000000" points="811.8076,-388.1059 807.4608,-397.768 816.8842,-392.9255 811.8076,-388.1059"/>
</g>
<!-- static&#45;&gt;f -->
<g id="edge101" class="edge">
<title>static-&gt;f</title>
<path fill="none" stroke="#000000" d="M869.8454,-352.2234C870.8131,-361.779 872.0205,-373.7025 873.109,-384.4513"/>
<polygon fill="#000000" stroke="#000000" points="869.6547,-385.0808 874.1445,-394.6772 876.6191,-384.3755 869.6547,-385.0808"/>
</g>
<!-- dtype -->
<g id="node28" class="node">
<title>dtype</title>
<ellipse fill="#d3d3d3" stroke="#000000" cx="261" cy="-255" rx="32.4846" ry="18"/>
<text text-anchor="middle" x="261" y="-250.8" font-family="Times,serif" font-size="14.00" fill="#000000">dtype</text>
</g>
<!-- dtype&#45;&gt;M -->
<!-- dtype&#45;&gt;nbytes -->
<g id="edge108" class="edge">
<title>dtype-&gt;nbytes</title>
<path fill="none" stroke="#000000" d="M239.9991,-241.0582C222.7177,-229.5857 197.8428,-213.0721 177.4792,-199.5534"/>
<polygon fill="#000000" stroke="#000000" points="179.3305,-196.5814 169.0634,-193.9665 175.4589,-202.4133 179.3305,-196.5814"/>
</g>
<!-- Imax -->
<g id="node35" class="node">
<title>Imax</title>
<polygon fill="#d3d3d3" stroke="#000000" points="288,-194 234,-194 234,-158 288,-158 288,-194"/>
<text text-anchor="middle" x="261" y="-171.8" font-family="Times,serif" font-size="14.00" fill="#000000">Imax</text>
</g>
<!-- dtype&#45;&gt;Imax -->
<g id="edge109" class="edge">
<title>dtype-&gt;Imax</title>
<path fill="none" stroke="#000000" d="M261,-236.6772C261,-227.1053 261,-215.1777 261,-204.4371"/>
<polygon fill="#000000" stroke="#000000" points="264.5001,-204.2234 261,-194.2234 257.5001,-204.2234 264.5001,-204.2234"/>
</g>
<!-- q -->
<g id="node36" class="node">
<title>q</title>
<polygon fill="#d3d3d3" stroke="#000000" points="371,-194 317,-194 317,-158 371,-158 371,-194"/>
<text text-anchor="middle" x="344" y="-171.8" font-family="Times,serif" font-size="14.00" fill="#000000">q</text>
</g>
<!-- dtype&#45;&gt;q -->
<g id="edge110" class="edge">
<title>dtype-&gt;q</title>
<path fill="none" stroke="#000000" d="M277.3981,-239.3921C288.851,-228.4912 304.3895,-213.7015 317.5772,-201.1494"/>
<polygon fill="#000000" stroke="#000000" points="320.1911,-203.4935 325.0215,-194.0638 315.365,-198.423 320.1911,-203.4935"/>
</g>
<!-- M&#45;&gt;L -->
<!-- M&#45;&gt;u -->
<g id="edge102" class="edge">
<title>M-&gt;u</title>
<path fill="none" stroke="#000000" d="M364.0392,-239.768C374.771,-228.8986 389.455,-214.0263 401.9427,-201.3785"/>
<polygon fill="#000000" stroke="#000000" points="404.4597,-203.8109 408.995,-194.2358 399.4785,-198.8927 404.4597,-203.8109"/>
</g>
<!-- L&#45;&gt;l -->
<g id="edge105" class="edge">
<title>L-&gt;l</title>
<path fill="none" stroke="#000000" d="M452.7584,-266.798C501.5441,-294.5251 623.6378,-363.9164 680.2778,-396.1075"/>
<polygon fill="#000000" stroke="#000000" points="678.6814,-399.226 689.1048,-401.1243 682.1403,-393.1402 678.6814,-399.226"/>
</g>
<!-- L&#45;&gt;eta -->
<!-- L&#45;&gt;eta -->
<g id="edge104" class="edge">
<title>L:e-&gt;eta</title>
<path fill="none" stroke="#000000" d="M459,-255C534.9174,-255 623.7509,-255 672.7614,-255"/>
<polygon fill="#000000" stroke="#000000" points="672.8858,-258.5001 682.8858,-255 672.8858,-251.5001 672.8858,-258.5001"/>
</g>
<!-- eta&#45;&gt;DR -->
<!-- eta&#45;&gt;PU -->
<g id="edge106" class="edge">
<title>eta:s-&gt;PU:s</title>
<path fill="none" stroke="#000000" d="M710,-237C710,-203.5694 846.334,-200.4353 871.8966,-227.5977"/>
<polygon fill="#000000" stroke="#000000" points="868.7922,-229.2348 876,-237 875.2079,-226.4348 868.7922,-229.2348"/>
</g>
<!-- DR&#45;&gt;PU -->
<!-- nbytes&#45;&gt;Imax -->
<!-- gamma -->
<g id="node43" class="node">
<title>gamma</title>
<ellipse fill="#d3d3d3" stroke="#000000" cx="83" cy="-18" rx="39.4254" ry="18"/>
<text text-anchor="middle" x="83" y="-13.8" font-family="Times,serif" font-size="14.00" fill="#000000">gamma</text>
</g>
<!-- nbytes&#45;&gt;gamma -->
<!-- Imax&#45;&gt;q -->
<!-- A -->
<g id="node38" class="node">
<title>A</title>
<ellipse fill="#d3d3d3" stroke="#000000" cx="178" cy="-97" rx="27" ry="18"/>
<text text-anchor="middle" x="178" y="-92.8" font-family="Times,serif" font-size="14.00" fill="#000000">A</text>
</g>
<!-- Imax&#45;&gt;A -->
<g id="edge111" class="edge">
<title>Imax-&gt;A</title>
<path fill="none" stroke="#000000" d="M241.7495,-157.6772C229.6142,-146.1268 213.8752,-131.1463 201.0723,-118.9604"/>
<polygon fill="#000000" stroke="#000000" points="203.1951,-116.149 193.5386,-111.7898 198.3691,-121.2194 203.1951,-116.149"/>
</g>
<!-- B -->
<g id="node39" class="node">
<title>B</title>
<ellipse fill="#d3d3d3" stroke="#000000" cx="261" cy="-97" rx="27" ry="18"/>
<text text-anchor="middle" x="261" y="-92.8" font-family="Times,serif" font-size="14.00" fill="#000000">B</text>
</g>
<!-- Imax&#45;&gt;B -->
<g id="edge112" class="edge">
<title>Imax-&gt;B</title>
<path fill="none" stroke="#000000" d="M261,-157.6772C261,-148.1053 261,-136.1777 261,-125.4371"/>
<polygon fill="#000000" stroke="#000000" points="264.5001,-125.2234 261,-115.2234 257.5001,-125.2234 264.5001,-125.2234"/>
</g>
<!-- q&#45;&gt;u -->
<!-- QN -->
<g id="node40" class="node">
<title>QN</title>
<polygon fill="#d3d3d3" stroke="#000000" points="371,-115 317,-115 317,-79 371,-79 371,-115"/>
<text text-anchor="middle" x="344" y="-92.8" font-family="Times,serif" font-size="14.00" fill="#000000">QN</text>
</g>
<!-- q&#45;&gt;QN -->
<g id="edge113" class="edge">
<title>q-&gt;QN</title>
<path fill="none" stroke="#000000" d="M344,-157.6772C344,-148.1053 344,-136.1777 344,-125.4371"/>
<polygon fill="#000000" stroke="#000000" points="347.5001,-125.2234 344,-115.2234 340.5001,-125.2234 347.5001,-125.2234"/>
</g>
<!-- u&#45;&gt;DR -->
<g id="edge107" class="edge">
<title>u-&gt;DR:sw</title>
<path fill="none" stroke="#000000" d="M454.1685,-177.0149C522.9778,-180.1343 702.5944,-191.8515 758.1798,-230.554"/>
<polygon fill="#000000" stroke="#000000" points="756.0573,-233.3402 766,-237 760.5097,-227.9387 756.0573,-233.3402"/>
</g>
<!-- A&#45;&gt;B -->
<!-- A&#45;&gt;B -->
<g id="edge115" class="edge">
<title>A:e-&gt;B</title>
<path fill="none" stroke="#000000" d="M215.4192,-97C218.1688,-97 220.9312,-97 223.6617,-97"/>
<polygon fill="#000000" stroke="#000000" points="215,-93.5001 205,-97 215,-100.5001 215,-93.5001"/>
<polygon fill="#000000" stroke="#000000" points="223.9408,-100.5001 233.9407,-97 223.9407,-93.5001 223.9408,-100.5001"/>
</g>
<!-- V -->
<g id="node44" class="node">
<title>V</title>
<ellipse fill="#d3d3d3" stroke="#000000" cx="178" cy="-18" rx="27" ry="18"/>
<text text-anchor="middle" x="178" y="-13.8" font-family="Times,serif" font-size="14.00" fill="#000000">V</text>
</g>
<!-- A&#45;&gt;V -->
<g id="edge116" class="edge">
<title>A-&gt;V</title>
<path fill="none" stroke="#000000" d="M178,-68.4513C178,-61.2294 178,-53.4773 178,-46.2694"/>
<polygon fill="#000000" stroke="#000000" points="174.5001,-68.6772 178,-78.6772 181.5001,-68.6773 174.5001,-68.6772"/>
<polygon fill="#000000" stroke="#000000" points="181.5001,-46.2234 178,-36.2234 174.5001,-46.2234 181.5001,-46.2234"/>
</g>
<!-- B&#45;&gt;u -->
<g id="edge118" class="edge">
<title>B-&gt;u</title>
<path fill="none" stroke="#000000" d="M282.9853,-107.4629C310.4431,-120.5301 357.8018,-143.0683 390.6798,-158.7151"/>
<polygon fill="#000000" stroke="#000000" points="389.4261,-161.9945 399.9598,-163.1315 392.4342,-155.6738 389.4261,-161.9945"/>
</g>
<!-- B&#45;&gt;QN -->
<!-- B&#45;&gt;V -->
<g id="edge117" class="edge">
<title>B-&gt;V</title>
<path fill="none" stroke="#000000" d="M237.9502,-75.061C226.4486,-64.1138 212.5731,-50.9069 201.0689,-39.9572"/>
<polygon fill="#000000" stroke="#000000" points="235.7318,-77.7815 245.3883,-82.1407 240.5579,-72.7111 235.7318,-77.7815"/>
<polygon fill="#000000" stroke="#000000" points="203.1982,-37.1518 193.5417,-32.7927 198.3721,-42.2223 203.1982,-37.1518"/>
</g>
<!-- QN&#45;&gt;u -->
<g id="edge119" class="edge">
<title>QN-&gt;u</title>
<path fill="none" stroke="#000000" d="M363.1461,-115.2234C374.2313,-125.7744 388.3496,-139.2123 400.4904,-150.768"/>
<polygon fill="#000000" stroke="#000000" points="398.093,-153.3181 407.7495,-157.6772 402.9191,-148.2476 398.093,-153.3181"/>
</g>
<!-- DN -->
<g id="node41" class="node">
<title>DN</title>
<ellipse fill="#d3d3d3" stroke="#000000" cx="427" cy="-97" rx="27" ry="18"/>
<text text-anchor="middle" x="427" y="-92.8" font-family="Times,serif" font-size="14.00" fill="#000000">DN</text>
</g>
<!-- QN&#45;&gt;DN -->
<!-- DN&#45;&gt;u -->
<g id="edge120" class="edge">
<title>DN-&gt;u</title>
<path fill="none" stroke="#000000" d="M427,-115.2234C427,-124.779 427,-136.7025 427,-147.4513"/>
<polygon fill="#000000" stroke="#000000" points="423.5001,-147.6772 427,-157.6772 430.5001,-147.6773 423.5001,-147.6772"/>
</g>
<!-- PN -->
<g id="node42" class="node">
<title>PN</title>
<ellipse fill="#d3d3d3" stroke="#000000" cx="510" cy="-97" rx="27" ry="18"/>
<text text-anchor="middle" x="510" y="-92.8" font-family="Times,serif" font-size="14.00" fill="#000000">PN</text>
</g>
<!-- DN&#45;&gt;PN -->
<!-- PN&#45;&gt;u -->
<g id="edge121" class="edge">
<title>PN-&gt;u</title>
<path fill="none" stroke="#000000" d="M494.4614,-111.7898C483.0524,-122.6489 467.2685,-137.6721 453.8365,-150.4569"/>
<polygon fill="#000000" stroke="#000000" points="451.0809,-148.2476 446.2505,-157.6772 455.907,-153.3181 451.0809,-148.2476"/>
</g>
<!-- gamma&#45;&gt;V -->
<!-- Vmin -->
<g id="node45" class="node">
<title>Vmin</title>
<ellipse fill="#d3d3d3" stroke="#000000" cx="267" cy="-18" rx="33.0643" ry="18"/>
<text text-anchor="middle" x="267" y="-13.8" font-family="Times,serif" font-size="14.00" fill="#000000">Vmin</text>
</g>
<!-- V&#45;&gt;Vmin -->
<!-- verbose -->
<g id="node46" class="node">
<title>verbose</title>
<ellipse fill="#d3d3d3" stroke="#000000" cx="370" cy="-18" rx="41.1316" ry="18"/>
<text text-anchor="middle" x="370" y="-13.8" font-family="Times,serif" font-size="14.00" fill="#000000">verbose</text>
</g>
<!-- Vmin&#45;&gt;verbose -->
<!-- mode -->
<g id="node47" class="node">
<title>mode</title>
<ellipse fill="#d3d3d3" stroke="#000000" cx="473" cy="-18" rx="32.4846" ry="18"/>
<text text-anchor="middle" x="473" y="-13.8" font-family="Times,serif" font-size="14.00" fill="#000000">mode</text>
</g>
<!-- verbose&#45;&gt;mode -->
</g>
</svg>